HIERARCHY
ROOT Hips
{
	OFFSET	0.00	0.00	0.00
	CHANNELS 6 Xposition Yposition Zposition Zrotation Xrotation Yrotation
	JOINT Spine
	{
		OFFSET	 0.00	0.01	 0.00
		CHANNELS 3 Zrotation Xrotation Yrotation
		JOINT Spine1
		{
			OFFSET	 0.00	 2.45913012437421	 0.00
			CHANNELS 3 Zrotation Xrotation Yrotation
            JOINT Neck
            {
                OFFSET	 0.00	 2.48462964506057	 0.00
                CHANNELS 3 Zrotation Xrotation Yrotation
                JOINT Head
                {
                    OFFSET	 0.00	 0.927524780924562	 0.00
                    CHANNELS 3 Zrotation Xrotation Yrotation
                    End Site 
                    {
                        OFFSET	 0.00	 1.14999962169752	 0.00
                    }
                }
            }
			JOINT LeftShoulder
			{
				OFFSET	 0.00	 2.48462964506057	 0.00
				CHANNELS 3 Zrotation Xrotation Yrotation
				JOINT LeftUpArm
				{
					OFFSET	 0.00	 1.24881979654096	 0.00
					CHANNELS 3 Zrotation Xrotation Yrotation
					JOINT LeftForeArm
					{
						OFFSET	 0.00	2.59758046908119	 0.00
						CHANNELS 3 Zrotation Xrotation Yrotation
						JOINT LeftHand
						{
							OFFSET	 0.00	2.45542024364365	 0.00
							CHANNELS 3 Zrotation Xrotation Yrotation
							JOINT LeftHandThumb 
							{
								OFFSET	 0.00	0.00	 0.00
								CHANNELS 3 Zrotation Xrotation Yrotation
								End Site
								{
									OFFSET	 0.00	0.00	1.00000003353624
								}
							}
							JOINT L_Wrist_End 
							{
								OFFSET	 0.00	0.99999967115358	 0.00
								CHANNELS 3 Zrotation Xrotation Yrotation
								End Site 
								{
									OFFSET	 0.00	 0.00	 0.00
								}
							}
						}
					}
				}
			}
			JOINT RightShoulder
			{
				OFFSET	 0.00	 2.48462964506057	 0.00
				CHANNELS 3 Zrotation Xrotation Yrotation
				JOINT RightUpArm
				{
					OFFSET	 0.00	 1.24881979654096	 0.00
					CHANNELS 3 Zrotation Xrotation Yrotation
					JOINT RightForeArm
					{
						OFFSET	 0.00	2.59758046908119	 0.00
						CHANNELS 3 Zrotation Xrotation Yrotation
						JOINT RightHand
						{
							OFFSET	 0.00	2.45542024364365	 0.00
							CHANNELS 3 Zrotation Xrotation Yrotation
							JOINT RightHandThumb 
							{
								OFFSET	 0.00	0.00	 0.00
								CHANNELS 3 Zrotation Xrotation Yrotation
								End Site
								{
									OFFSET	 0.00	0.00	1.00000003353624
								}
							}
							JOINT R_Wrist_End 
							{
								OFFSET	 0.00	0.99999967115358	 0.00
								CHANNELS 3 Zrotation Xrotation Yrotation
								End Site 
								{
									OFFSET	 0.00	 0.00	 0.00
								}
							}
						}
					}
				}
			}
		}
	}
	JOINT LeftUpLeg
	{
		OFFSET	 1.2719394002717	 0.00	 0.00
		CHANNELS 3 Zrotation Xrotation Yrotation
		JOINT LeftLowLeg
		{
			OFFSET	 0.00	-4.3429100912261	 0.00
			CHANNELS 3 Zrotation Xrotation Yrotation
			JOINT LeftFoot
			{
				OFFSET	 0.00	-4.48767017425826	 0.00
				CHANNELS 3 Zrotation Xrotation Yrotation
				JOINT LeftToeBase
                {
                    OFFSET	 0.00	0.00	 1.51507020887566
                    CHANNELS 3 Zrotation Xrotation Yrotation
                    End Site 
                    {
                        OFFSET	 0.00	0.00	 0.75000010571191
                    }
                }
			}
		}
	}
	JOINT RightUpLeg
	{
		OFFSET	 -1.2719393604653	 0.00	 0.00
		CHANNELS 3 Zrotation Xrotation Yrotation
		JOINT RightLowLeg
		{
			OFFSET	 0.00	-4.3429100912261	 0.00
			CHANNELS 3 Zrotation Xrotation Yrotation
			JOINT RightFoot
			{
				OFFSET	 0.00	-4.48767017425826	 0.00
				CHANNELS 3 Zrotation Xrotation Yrotation
				JOINT RightToeBase
                {
                    OFFSET	 0.00	0.00	 1.51507020887566
                    CHANNELS 3 Zrotation Xrotation Yrotation
                    End Site 
                    {
                        OFFSET	 0.00	0.00	 0.749999965609858
                    }
                }   
			}
		}
	}
}
MOTION 
Frames:	15 
Frame Time: 0.02 
  -1.9439599609375 4.751510009765625 3.4045001220703126 -141.029 34.6656 905.431 9.96248 53.0536 -5.50293 -9.81396 8.33312 -3.35578 16.0957 0.891682 356.676 151.606 -79.0223 -205.443 -109.014496 -20.3205 21.2037 75.2748 12.8982 -115.618 0.0 112.077 0.0 102.216 29.3315 -6.99985 0.0 0.0 0.0 0.0 0.0 0.0 107.7341 -13.5795 17.4454 -33.5875 35.6772 72.0899 0.0 118.106 0.0 -98.3594 30.5115 11.4707 0.0 0.0 0.0 0.0 0.0 0.0 -94.4409 -71.629 -74.8874 0.0 147.32 0.0 16.1538 -23.476501 20.6024 0.0 -54.5289 0.0 -12.4221 -3.08204 -5.67763 0.0 53.3738 0.0 19.2913 -7.4603004 1.01901 0.0 -61.5566 0.0 
  -1.9443499755859375 4.751289978027343 3.404330139160156 -141.036 34.662 905.445 9.95498 53.0538 -5.49751 -9.81586 8.337 -3.35786 16.1288 0.924005 356.656 151.669 -79.0303 -205.368 -109.0072 -20.327 21.1958 75.2833 12.9054 -115.598 0.0 112.018 0.0 102.058 29.5195 -6.70296 0.0 0.0 0.0 0.0 0.0 0.0 107.7351 -13.5899 17.3922 -33.6061 35.6469 72.143 0.0 118.147 0.0 -98.4108 30.4303 11.5932 0.0 0.0 0.0 0.0 0.0 0.0 -94.4457 -71.62 -74.8888 0.0 147.32 0.0 16.1689 -23.481098 20.6216 0.0 -54.517 0.0 -12.405 -3.07408 -5.73088 0.0 53.3568 0.0 19.0851 -7.5326004 0.795898 0.0 -61.7139 0.0 
  -1.9444599914550782 4.750950012207031 3.4042999267578127 -141.029 34.6535 905.458 9.98226 53.0522 -5.52432 -9.81222 8.33243 -3.35857 16.0876 0.975415 356.668 151.774 -79.0384 -205.304 -109.0111 -20.3288 21.1841 75.2652 12.9055 -115.569 0.0 111.995 0.0 102.024 29.5767 -6.6387 0.0 0.0 0.0 0.0 0.0 0.0 107.7251 -13.575 17.4154 -33.5571 35.6053 72.1132 0.0 118.158 0.0 -98.3041 30.9335 11.3934 0.0 0.0 0.0 0.0 0.0 0.0 -94.4835 -71.5893 -74.9276 0.0 147.319 0.0 16.1171 -23.483002 20.6259 0.0 -54.4623 0.0 -12.3994 -3.0766 -5.79193 0.0 53.3688 0.0 19.0573 -7.572901 0.746587 0.0 -61.4855 0.0 
  -1.944429931640625 4.750859985351562 3.403869934082031 -141.022 34.6415 905.467 10.0024 53.038 -5.54217 -9.81211 8.32752 -3.35633 16.0805 1.01026 356.655 151.891 -79.0259 -205.181 -109.0123 -20.3312 21.1937 75.2609 12.9011 -115.547 0.0 111.992 0.0 102.021 29.5872 -6.61725 0.0 0.0 0.0 0.0 0.0 0.0 107.7284 -13.5513 17.4123 -33.5339 35.5584 72.0868 0.0 118.103 0.0 -97.9819 31.9386 10.3814 0.0 0.0 0.0 0.0 0.0 0.0 -94.5365 -71.5733 -74.9781 0.0 147.323 0.0 16.1212 -23.4705 20.6451 0.0 -54.5174 0.0 -12.3932 -3.07729 -5.84141 0.0 53.3625 0.0 19.0432 -7.5944004 0.703752 0.0 -61.4804 0.0 
  -1.9446200561523437 4.749909973144531 3.403089904785156 -140.995 34.6206 905.475 10.119 53.0328 -5.62358 -9.87961 8.28512 -3.31955 16.0779 1.07606 356.603 152.155 -79.0091 -204.902 -108.9517 -20.2727 21.3026 75.2109 12.797 -115.435 0.0 111.996 0.0 102.15 29.5145 -6.69766 0.0 0.0 0.0 0.0 0.0 0.0 107.758896 -13.59 17.3308 -33.5229 35.5091 72.2313 0.0 118.095 0.0 -97.8419 32.0948 10.5481 0.0 0.0 0.0 0.0 0.0 0.0 -94.6289 -71.5477 -75.1155 0.0 147.341 0.0 16.081 -23.443699 20.5995 0.0 -54.5062 0.0 -12.3494 -3.07148 -5.94222 0.0 53.3466 0.0 19.026 -7.6532 0.568487 0.0 -61.3401 0.0 
  -1.94447998046875 4.749869995117187 3.4027099609375 -141.0 34.6135 905.492 10.1255 53.0167 -5.64623 -9.87022 8.30204 -3.3384 16.0799 1.0874 356.622 152.107 -79.0107 -204.939 -108.9583 -20.2996 21.3068 75.1996 12.7743 -115.417 0.0 111.982 0.0 102.108 29.5737 -6.64034 0.0 0.0 0.0 0.0 0.0 0.0 107.7574 -13.5841 17.3201 -33.5263 35.5217 72.2498 0.0 118.094 0.0 -97.7574 32.0287 10.5143 0.0 0.0 0.0 0.0 0.0 0.0 -94.636 -71.543 -75.1119 0.0 147.34 0.0 16.096 -23.442501 20.6144 0.0 -54.5952 0.0 -12.3574 -3.06972 -6.01312 0.0 53.3543 0.0 18.9762 -7.6912003 0.504053 0.0 -61.2212 0.0 
  -1.9444200134277343 4.7498300170898435 3.4027301025390626 -140.999 34.6099 905.496 10.1281 53.0134 -5.65154 -9.86597 8.30747 -3.34131 16.0747 1.12063 356.65 152.115 -79.0163 -204.953 -108.9548 -20.3166 21.2956 75.1991 12.7815 -115.387 0.0 111.992 0.0 102.049 29.5394 -6.5378 0.0 0.0 0.0 0.0 0.0 0.0 107.7596 -13.5824 17.3503 -33.5301 35.5266 72.2103 0.0 118.085 0.0 -97.7352 31.9304 10.4166 0.0 0.0 0.0 0.0 0.0 0.0 -94.6313 -71.5411 -75.1208 0.0 147.341 0.0 16.0285 -23.4733 20.5415 0.0 -54.5413 0.0 -12.3545 -3.07352 -6.04609 0.0 53.3613 0.0 18.9544 -7.7138004 0.460482 0.0 -61.2172 0.0 
  -1.9446099853515626 4.749700012207032 3.4029501342773436 -140.985 34.6073 905.475 10.118 52.9997 -5.65174 -9.86427 8.34463 -3.34985 16.1103 1.16557 356.684 151.978 -79.051 -205.068 -108.9578 -20.3636 21.2916 75.2046 12.7464 -115.354 0.0 111.959 0.0 102.084 29.4841 -6.69402 0.0 0.0 0.0 0.0 0.0 0.0 107.7706 -13.5757 17.3677 -33.5824 35.5564 72.2398 0.0 118.086 0.0 -97.7493 31.7001 10.7741 0.0 0.0 0.0 0.0 0.0 0.0 -94.6439 -71.5565 -75.1467 0.0 147.349 0.0 15.993 -23.477901 20.5325 0.0 -54.5041 0.0 -12.3336 -3.08983 -6.02764 0.0 53.3606 0.0 19.3749 -7.6266003 0.73943 0.0 -62.3938 0.0 
  -1.944530029296875 4.749869995117187 3.4031100463867188 -140.975 34.6072 905.458 10.1269 52.9962 -5.66195 -9.87872 8.36273 -3.34993 16.1491 1.22563 356.715 151.919 -79.0622 -205.09 -108.9714 -20.3906 21.2792 75.2376 12.713 -115.283 0.0 111.911 0.0 102.122 29.4564 -6.75007 0.0 0.0 0.0 0.0 0.0 0.0 107.7662 -13.5976 17.4564 -33.5252 35.6539 72.2105 0.0 118.072 0.0 -97.8163 31.5666 11.0194 0.0 0.0 0.0 0.0 0.0 0.0 -94.6545 -71.5596 -75.162 0.0 147.35 0.0 16.0344 -23.4441 20.5765 0.0 -54.5444 0.0 -12.3242 -3.09309 -6.05017 0.0 53.3555 0.0 19.3915 -7.6490993 0.699885 0.0 -62.3304 0.0 
  -1.944320068359375 4.750130004882813 3.403039855957031 -140.967 34.605 905.453 10.1472 52.9856 -5.68669 -9.88118 8.37651 -3.35458 16.1185 1.24821 356.744 151.909 -79.0715 -205.129 -108.9794 -20.4045 21.2836 75.23 12.6785 -115.241 0.0 111.908 0.0 102.146 29.3821 -6.72561 0.0 0.0 0.0 0.0 0.0 0.0 107.7422 -13.6059 17.4788 -33.4874 35.7204 72.2629 0.0 118.136 0.0 -97.9966 30.5261 11.9821 0.0 0.0 0.0 0.0 0.0 0.0 -94.6529 -71.5597 -75.1566 0.0 147.35 0.0 15.9769 -23.4665 20.5416 0.0 -54.5223 0.0 -12.3182 -3.09183 -6.05579 0.0 53.3511 0.0 19.4004 -7.654499 0.697148 0.0 -62.1237 0.0 
  -1.9442100524902344 4.75 3.4032101440429687 -140.97 34.6024 905.457 10.1573 52.985 -5.69397 -9.87418 8.38598 -3.35 16.1389 1.30343 356.727 151.93 -79.099 -205.082 -108.9786 -20.417 21.2812 75.2276 12.683 -115.218 0.0 111.869 0.0 102.201 29.4533 -6.78577 0.0 0.0 0.0 0.0 0.0 0.0 107.7446 -13.6056 17.4763 -33.4982 35.6927 72.3371 0.0 118.127 0.0 -97.8503 30.7184 11.9574 0.0 0.0 0.0 0.0 0.0 0.0 -94.603 -71.575 -75.0999 0.0 147.34 0.0 16.0707 -23.457298 20.6077 0.0 -54.5637 0.0 -12.3151 -3.09567 -6.07079 0.0 53.3559 0.0 19.3599 -7.6534004 0.647574 0.0 -61.6681 0.0 
  -1.943800048828125 4.750039978027344 3.4029901123046873 -140.949 34.6045 905.473 10.2124 52.9709 -5.7661 -9.83522 8.39647 -3.3721 16.138 1.40306 356.731 152.07 -79.1019 -204.931 -109.0049 -20.4658 21.3485 75.1947 12.6208 -115.264 0.0 111.87 0.0 102.288 29.5653 -6.93942 0.0 0.0 0.0 0.0 0.0 0.0 107.7193 -13.58 17.5771 -33.4442 35.7913 72.3074 0.0 118.101 0.0 -97.5752 31.1468 11.6607 0.0 0.0 0.0 0.0 0.0 0.0 -94.5741 -71.5519 -75.0712 0.0 147.337 0.0 16.0251 -23.4767 20.5855 0.0 -54.4497 0.0 -12.2947 -3.08921 -6.13449 0.0 53.376 0.0 18.9569 -7.7612 0.287177 0.0 -61.2617 0.0 
  -1.9426499938964843 4.750429992675781 3.4026800537109376 -140.875 34.6084 905.456 10.297 52.9438 -5.82717 -9.77322 8.44251 -3.33731 16.1796 1.50454 356.71 152.144 -79.1313 -204.811 -109.027 -20.5877 21.5612 75.2345 12.5117 -115.532 0.0 111.795 0.0 102.858 29.9106 -7.57743 0.0 0.0 0.0 0.0 0.0 0.0 107.7333 -13.5556 17.5286 -33.5711 35.7337 72.5596 0.0 118.087 0.0 -97.1843 31.4213 11.5581 0.0 0.0 0.0 0.0 0.0 0.0 -94.5566 -71.5212 -75.0653 0.0 147.34 0.0 16.0107 -23.4673 20.6277 0.0 -54.526 0.0 -12.2292 -3.08328 -6.1684 0.0 53.3681 0.0 18.941 -7.7325993 0.227654 0.0 -61.6695 0.0 
  -1.941719970703125 4.75010986328125 3.4036300659179686 -140.796 34.6834 905.405 10.3394 52.9811 -5.85012 -9.71095 8.52861 -3.30412 16.2484 1.59127 356.734 152.079 -79.1531 -204.818 -109.0423 -20.6396 21.6323 75.2207 12.4482 -115.681 0.0 111.672 0.0 103.523 29.9541 -8.44129 0.0 0.0 0.0 0.0 0.0 0.0 107.7599 -13.5663 17.6791 -33.615 35.8476 72.5616 0.0 118.056 0.0 -97.3823 31.2128 11.8547 0.0 0.0 0.0 0.0 0.0 0.0 -94.2503 -71.5509 -74.7829 0.0 147.334 0.0 16.0634 -23.463001 20.6881 0.0 -54.3718 0.0 -12.13 -3.02689 -6.13887 0.0 53.3615 0.0 18.9354 -7.7238007 0.130952 0.0 -61.6477 0.0 
  -1.941719970703125 4.75010986328125 3.4036300659179686 -140.796 34.6834 905.405 10.3394 52.9811 -5.85012 -9.71095 8.52861 -3.30412 16.2484 1.59127 356.734 152.079 -79.1531 -204.818 -109.0423 -20.6396 21.6323 75.2207 12.4482 -115.681 0.0 111.672 0.0 103.523 29.9541 -8.44129 0.0 0.0 0.0 0.0 0.0 0.0 107.7599 -13.5663 17.6791 -33.615 35.8476 72.5616 0.0 118.056 0.0 -97.3823 31.2128 11.8547 0.0 0.0 0.0 0.0 0.0 0.0 -94.2503 -71.5509 -74.7829 0.0 147.334 0.0 16.0634 -23.463001 20.6881 0.0 -54.3718 0.0 -12.13 -3.02689 -6.13887 0.0 53.3615 0.0 18.9354 -7.7238007 0.130952 0.0 -61.6477 0.0 
